<?xml version="1.0" encoding="utf-8"?>
<!-- Generator: Adobe Illustrator 27.0.0, SVG Export Plug-In . SVG Version: 6.00 Build 0)  -->
<svg version="1.1" id="Layer_1" xmlns="http://www.w3.org/2000/svg" xmlns:xlink="http://www.w3.org/1999/xlink" x="0px" y="0px"
	 viewBox="0 0 523.2 320.6" style="enable-background:new 0 0 523.2 320.6;" xml:space="preserve">
<style type="text/css">
	.st0{fill:#CE1126;}
	.st1{fill:#1EB53A;}
	.st2{fill:#706969;}
</style>
<g>
	<g>
		<path class="st0" d="M362-261.7c-4.5-1.9-5.8-5.4-3.1-8.2c13.2-13.4,17.4-27.3-2.6-40.5c-21.2-13.8-48.3-11.7-75.3-8.8
			c-5.1,0.6-8.8,3.2-8.8,6.2v37.1c0,2.5,2.7,4.8,6.7,5.8c92.3,22.8,129.3,49.7,123.1,89.1c-4.7,30.2-41.7,61-83.5,71.3
			c-7.2,1.8-15.1-1.3-15.1-5.8v-129.9c0-2.7-2.8-5-7.1-5.9c-3.1-0.7-6.2-1.3-9.3-2c-7.1-1.5-14.6,1.5-14.6,5.9v147.1
			c0,4,6.3,7,13,6.2c63.2-7.5,115.9-24.3,141.2-60.9C458.7-201.4,425.2-235.4,362-261.7z M311.6-274.9l-0.1,0
			c-4.6-0.8-7.7-3.3-7.7-6.1v-26.1c0-3.4,4.7-6.2,10.5-6.3c11.4-0.3,21.4,1.6,26.8,8.7c10.2,13.4-4.6,20.9-19.2,28.5
			C319.2-274.8,315.2-274.3,311.6-274.9z"/>
	</g>
	<g>
		<path class="st1" d="M99-154.9c25.3,36.6,78.1,53.4,141.2,60.9c6.7,0.8,13-2.2,13-6.2v-147.1c0-4.4-7.5-7.4-14.6-5.9
			c-3.1,0.7-6.2,1.3-9.3,2c-4.3,0.9-7.1,3.3-7.1,5.9v129.9c0,4.5-7.9,7.6-15.1,5.8c-41.8-10.3-78.8-41-83.5-71.3
			c-6.2-39.4,30.8-66.4,123.1-89.1c4-1,6.7-3.3,6.7-5.8v-37.1c0-3-3.7-5.7-8.8-6.2c-27-2.9-54.1-5.1-75.3,8.8
			c-20.1,13.1-15.8,27.1-2.6,40.5c2.7,2.8,1.4,6.3-3.1,8.2C100.4-235.4,66.9-201.4,99-154.9z M203.6-276.2
			c-14.6-7.6-29.4-15.1-19.2-28.5c5.4-7.1,15.4-9,26.8-8.7c5.9,0.2,10.5,2.9,10.5,6.3v26.1c0,2.8-3.1,5.3-7.7,6.1l-0.1,0
			C210.4-274.3,206.4-274.8,203.6-276.2z"/>
	</g>
	<g>
		<path class="st2" d="M12.9-134.9l36.9-27.2l13,17.6c2.5,3.3,3.6,6.6,3.4,10c-0.3,3.3-1.9,6-4.8,8.2c-3.3,2.4-6.7,3.1-10.2,2
			l-0.2,0.2c0.9,4.5-0.9,8.3-5.2,11.5c-3.3,2.5-6.7,3.3-10.1,2.6c-3.5-0.7-6.5-2.9-9.2-6.5L12.9-134.9z M26.3-132.1l6.5,8.7
			c2.3,3.1,4.8,3.7,7.5,1.7c1.1-0.8,1.8-1.9,2-3.2c0.2-1.3-0.2-2.8-1.4-4.5l-6.5-8.7L26.3-132.1z M41.6-143.4l6.1,8.2
			c1.9,2.6,4,3.1,6.4,1.3c2.3-1.7,2.5-3.9,0.6-6.5l-6.1-8.2L41.6-143.4z"/>
		<path class="st2" d="M51.4-89.2c-2.9-2.5-4.5-5.4-4.7-8.5c-0.3-3.2,0.8-6.3,3.2-9.1l14.8-16.9l7.6,6.7l-12.8,14.6
			c-2.8,3.2-2.7,6,0.2,8.5c1.4,1.2,2.9,1.7,4.6,1.6c1.7-0.2,3.2-1,4.5-2.5l12.5-14.3l7.6,6.6L66.4-76.9l-6.8-6l1.6-3L61-85.9
			C57.7-85.5,54.5-86.5,51.4-89.2z"/>
		<path class="st2" d="M73.8-71.9l18.7-28.7l7,4.6l-2.1,4.6l0.2,0.1c3.6-2.1,7-2.1,10.4,0.1l2,1.3l-5.1,7.7l-2.7-1.8
			c-2-1.3-4-1.7-6-1.2c-2.1,0.5-3.9,1.9-5.3,4.2l-9.2,14.1L73.8-71.9z"/>
		<path class="st2" d="M108.8-50.6c-3.4-1.7-5.7-4-6.8-7c-1.1-3-0.9-6.3,0.8-9.6l9.9-20.2l9.1,4.4l-8.5,17.4c-1.8,3.8-1,6.5,2.4,8.2
			c1.6,0.8,3.3,0.9,4.9,0.3c1.6-0.6,2.8-1.8,3.7-3.6l8.4-17.1l9,4.4l-15.1,30.7l-8.1-4l0.7-3.3l-0.2-0.1
			C115.8-48.5,112.4-48.8,108.8-50.6z"/>
		<path class="st2" d="M134.6-39.3l10.9-32.5l8.6,2.9l-0.3,3.3l0.2,0.1c2.9-1.7,6.3-2,10.1-0.7c3.6,1.2,6.1,3.2,7.7,6.1
			c1.5,2.9,1.6,6.1,0.5,9.6l-7.2,21.4l-9.5-3.2l6.2-18.4c1.3-4,0.2-6.6-3.5-7.8c-1.8-0.6-3.3-0.5-4.8,0.3c-1.5,0.8-2.6,2.2-3.2,4.1
			l-6,18L134.6-39.3z"/>
		<path class="st2" d="M185.2-23.9c-4.2-0.9-7.1-3.1-8.9-6.9c-1.8-3.7-2.2-8.1-1.1-13.3c1-5.1,3.1-9,6.3-11.7
			c3.1-2.7,6.7-3.6,10.9-2.8c3.8,0.8,6.5,2.7,8.1,5.6l0.3,0.1l3.5-17.1l9.9,2l-9.8,47.5l-8.9-1.8l-0.4-3.4l-0.3-0.1
			C192.3-23.8,189.1-23.1,185.2-23.9z M190-31.9c2.2,0.5,4,0,5.5-1.4c1.4-1.4,2.4-3.3,2.9-6c1.2-5.8-0.4-9.1-4.8-10
			c-4.4-0.9-7.2,1.5-8.4,7.3c-0.5,2.7-0.4,4.9,0.3,6.6C186.3-33.5,187.8-32.4,190-31.9z"/>
		<path class="st2" d="M212.1-19.8l4.2-34l10,1.2l-4.2,34L212.1-19.8z M216.4-57.8l1.2-10.2l10.7,1.3l-1.2,10.2L216.4-57.8z"/>
		<path class="st2" d="M250.6-16.2l-0.8-45.8l21.9-0.4c4.1-0.1,7.5,0.9,10.1,3c2.5,2.1,3.8,5,3.9,8.7c0.1,4-1.4,7.2-4.3,9.4l0,0.3
			c4.1,1.9,6.3,5.5,6.4,11c0.1,4.1-1.2,7.4-3.7,9.7c-2.6,2.4-6.1,3.7-10.7,3.7L250.6-16.2z M260.3-44.6l10.2-0.2
			c3.2-0.1,4.8-1.5,4.8-4.4c0-2.9-1.7-4.3-4.9-4.2l-10.2,0.2L260.3-44.6z M260.7-25.5l10.9-0.2c3.9-0.1,5.8-1.8,5.7-5.2
			c0-1.4-0.5-2.6-1.4-3.5c-1-1-2.4-1.5-4.5-1.4l-10.9,0.2L260.7-25.5z"/>
		<path class="st2" d="M308.2-18.8c-3.8,0.5-7-0.2-9.5-2.1c-2.6-1.9-4.2-4.7-4.7-8.4l-3-22.3l10-1.4l2.6,19.2c0.6,4.2,2.7,6,6.5,5.5
			c1.8-0.2,3.2-1.1,4.2-2.4c1-1.4,1.3-3,1.1-5l-2.6-18.8l10-1.4l4.6,33.9l-9,1.2l-1.2-3.1l-0.3,0C315.1-21.1,312.2-19.4,308.2-18.8z
			"/>
		<path class="st2" d="M348.6-26.4c-5,1.2-8.9,1.1-11.8-0.5c-3-1.5-4.9-4.1-5.9-7.6l9.8-2.4c0.2,1,0.9,1.7,1.9,2.3
			c1,0.5,2.3,0.6,3.9,0.2c1.6-0.4,2.7-0.9,3.4-1.6c0.7-0.6,0.9-1.3,0.7-2c-0.3-1.3-1.7-1.9-4-1.8l-5.1,0.3
			c-7.1,0.4-11.4-2.2-12.8-7.9c-0.7-2.9-0.1-5.5,1.9-7.9c2-2.5,5.1-4.3,9.3-5.3c4.2-1,7.8-0.8,10.9,0.7c3,1.5,4.9,3.8,5.7,7
			l-9.7,2.4c-0.2-0.9-0.7-1.6-1.6-2.2c-0.9-0.5-2.1-0.6-3.6-0.2c-1.2,0.3-2,0.7-2.6,1.3c-0.6,0.6-0.8,1.3-0.7,1.9
			c0.3,1.2,1.3,1.8,3.1,1.7l6.7-0.4c3.1-0.2,5.7,0.3,7.9,1.3c2.2,1.2,3.7,3.3,4.5,6.5c0.8,3.4,0.2,6.3-2.1,8.8
			C356.2-29.3,352.9-27.5,348.6-26.4z"/>
		<path class="st2" d="M370.3-32.8l-17.1-45.3l9.5-3.6l6.2,16.4l0.2-0.1c1.1-3.2,3.6-5.5,7.4-6.9c3.6-1.4,6.9-1.4,9.8-0.1
			c2.9,1.3,5.1,3.7,6.4,7.2l8,21.1l-9.4,3.6l-6.8-18.1c-1.5-3.9-4-5.2-7.6-3.9c-1.7,0.6-2.9,1.8-3.7,3.4c-0.7,1.6-0.8,3.3-0.1,5.2
			l6.7,17.8L370.3-32.8z"/>
		<path class="st2" d="M418-52.4c-3.3,1.8-6.3,2.3-9.1,1.5c-2.8-0.7-5-2.5-6.5-5.3c-1.5-2.9-1.7-5.7-0.6-8.5
			c1.1-2.7,3.7-5.2,7.7-7.3l6.5-3.5l-0.9-1.6c-0.6-1.1-1.5-1.8-2.6-2.1c-1.1-0.2-2.5,0.1-4,0.9c-1.4,0.7-2.3,1.6-2.7,2.6
			c-0.5,1.1-0.4,2.1,0.1,3.1l-8.3,4.5c-1.6-3-1.9-6.1-0.7-9.3c1.1-3.2,3.8-5.9,8-8.1c4.1-2.2,7.8-2.9,11.2-2.2
			c3.5,0.8,6.1,2.7,7.8,5.9L434.6-62l-8,4.3l-2.1-2.4l-0.2,0.1C423.6-56.8,421.5-54.2,418-52.4z M416.5-60.5
			c1.7-0.9,2.9-2.1,3.5-3.6c0.6-1.4,0.5-2.8-0.2-4.1l-0.7-1.3l-5.7,3.1c-1.3,0.7-2.2,1.5-2.6,2.4c-0.4,0.9-0.4,1.8,0.1,2.6
			c0.5,0.9,1.2,1.4,2.2,1.6C414.1-59.6,415.3-59.8,416.5-60.5z"/>
		<path class="st2" d="M453.5-74.4c-4.1,3-7.8,4.4-11.1,4c-3.3-0.3-6.1-1.9-8.3-4.8l8.1-6c0.6,0.8,1.5,1.3,2.6,1.4
			c1.1,0.1,2.4-0.4,3.7-1.3c1.3-1,2.2-1.9,2.5-2.7c0.4-0.8,0.3-1.5-0.1-2.1c-0.8-1.1-2.3-1.1-4.4-0.1l-4.6,2.2
			c-6.4,3.1-11.3,2.3-14.8-2.5c-1.8-2.4-2.2-5.1-1.3-8.1c0.9-3.1,3.1-5.9,6.6-8.5c3.5-2.5,6.9-3.7,10.3-3.5c3.4,0.2,6,1.7,8,4.3
			l-8,5.9c-0.5-0.8-1.3-1.2-2.3-1.4c-1-0.2-2.1,0.3-3.4,1.2c-1,0.7-1.6,1.5-1.9,2.2c-0.3,0.8-0.3,1.5,0.1,2c0.7,1,1.9,1.1,3.5,0.4
			l6-2.9c2.8-1.3,5.4-1.9,7.8-1.8c2.4,0.2,4.6,1.7,6.6,4.3c2.1,2.8,2.6,5.8,1.4,8.9C459.4-80,457.1-77,453.5-74.4z"/>
		<path class="st2" d="M471.9-89.4L437-123l7-7.3l12.6,12.1l0.2-0.2c-0.3-3.4,0.9-6.5,3.7-9.4c2.7-2.8,5.6-4.2,8.8-4.3
			c3.2-0.1,6.2,1.1,8.8,3.7l16.2,15.6l-7,7.2l-13.9-13.4c-3-2.9-5.9-3-8.5-0.2c-1.3,1.3-1.9,2.9-1.9,4.6c0,1.8,0.8,3.3,2.2,4.7
			l13.7,13.2L471.9-89.4z"/>
		<path class="st2" d="M506.9-129.7c-2,3.2-4.4,5.1-7.2,5.9c-2.8,0.8-5.6,0.3-8.2-1.3c-2.8-1.7-4.3-4.1-4.7-7
			c-0.4-2.9,0.6-6.3,3-10.2l3.9-6.2l-1.6-1c-1.1-0.7-2.2-0.9-3.3-0.6c-1.1,0.3-2.1,1.3-3.1,2.8c-0.8,1.3-1.2,2.5-1,3.6
			c0.1,1.2,0.7,2,1.6,2.6l-5,8c-2.9-1.8-4.7-4.4-5.3-7.8c-0.6-3.3,0.4-7,2.9-11.1c2.4-3.9,5.3-6.4,8.7-7.5c3.4-1.1,6.6-0.7,9.7,1.2
			l19.1,11.9l-4.8,7.7l-3-1l-0.1,0.2C509.5-136.3,509-133.1,506.9-129.7z M501.6-136c1-1.7,1.5-3.3,1.2-4.8c-0.2-1.5-1-2.7-2.2-3.5
			l-1.2-0.8l-3.4,5.5c-0.8,1.3-1.1,2.4-1.1,3.4c0.1,1,0.5,1.7,1.4,2.3c0.9,0.6,1.8,0.6,2.7,0.3C499.9-134,500.8-134.8,501.6-136z"/>
	</g>
</g>
<g>
	<g>
		<path class="st0" d="M362,67.6c-4.5-1.9-5.8-5.4-3.1-8.2c13.2-13.4,17.4-27.3-2.6-40.5C335.2,5.2,308,7.3,281,10.2
			c-5.1,0.6-8.8,3.2-8.8,6.2v37.1c0,2.5,2.7,4.8,6.7,5.8c92.3,22.8,129.3,49.7,123.1,89.1c-4.7,30.2-41.7,61-83.5,71.3
			c-7.2,1.8-15.1-1.3-15.1-5.8V84.1c0-2.7-2.8-5-7.1-5.9c-3.1-0.7-6.2-1.3-9.3-2c-7.1-1.5-14.6,1.5-14.6,5.9v147.1c0,4,6.3,7,13,6.2
			c63.2-7.5,115.9-24.3,141.2-60.9C458.7,128,425.2,94,362,67.6z M311.6,54.5l-0.1,0c-4.6-0.8-7.7-3.3-7.7-6.1V22.3
			c0-3.4,4.7-6.2,10.5-6.3c11.4-0.3,21.4,1.6,26.8,8.7c10.2,13.4-4.6,20.9-19.2,28.5C319.2,54.6,315.2,55.1,311.6,54.5z"/>
	</g>
	<g>
		<path class="st1" d="M99,174.5c25.3,36.6,78.1,53.4,141.2,60.9c6.7,0.8,13-2.2,13-6.2V82.1c0-4.4-7.5-7.4-14.6-5.9
			c-3.1,0.7-6.2,1.3-9.3,2c-4.3,0.9-7.1,3.3-7.1,5.9V214c0,4.5-7.9,7.6-15.1,5.8c-41.8-10.3-78.8-41-83.5-71.3
			c-6.2-39.4,30.8-66.4,123.1-89.1c4-1,6.7-3.3,6.7-5.8V16.4c0-3-3.7-5.7-8.8-6.2c-27-2.9-54.1-5.1-75.3,8.8
			c-20.1,13.1-15.8,27.1-2.6,40.5c2.7,2.8,1.4,6.3-3.1,8.2C100.4,94,66.9,128,99,174.5z M203.6,53.1C189,45.6,174.2,38,184.5,24.7
			c5.4-7.1,15.4-9,26.8-8.7c5.9,0.2,10.5,2.9,10.5,6.3v26.1c0,2.8-3.1,5.3-7.7,6.1l-0.1,0C210.4,55.1,206.4,54.6,203.6,53.1z"/>
	</g>
	<g>
		<path class="st2" d="M12.9,194.5l36.9-27.2l13,17.6c2.5,3.3,3.6,6.6,3.4,10c-0.3,3.3-1.9,6-4.8,8.2c-3.3,2.4-6.7,3.1-10.2,2
			l-0.2,0.2c0.9,4.5-0.9,8.3-5.2,11.5c-3.3,2.5-6.7,3.3-10.1,2.6c-3.5-0.7-6.5-2.9-9.2-6.5L12.9,194.5z M26.3,197.3l6.5,8.7
			c2.3,3.1,4.8,3.7,7.5,1.7c1.1-0.8,1.8-1.9,2-3.2c0.2-1.3-0.2-2.8-1.4-4.5l-6.5-8.7L26.3,197.3z M41.6,186l6.1,8.2
			c1.9,2.6,4,3.1,6.4,1.3c2.3-1.7,2.5-3.9,0.6-6.5l-6.1-8.2L41.6,186z"/>
		<path class="st2" d="M51.4,240.2c-2.9-2.5-4.5-5.4-4.7-8.5c-0.3-3.2,0.8-6.3,3.2-9.1l14.8-16.9l7.6,6.7l-12.8,14.6
			c-2.8,3.2-2.7,6,0.2,8.5c1.4,1.2,2.9,1.7,4.6,1.6c1.7-0.2,3.2-1,4.5-2.5l12.5-14.3l7.6,6.6l-22.5,25.8l-6.8-6l1.6-3l-0.2-0.2
			C57.7,243.9,54.5,242.8,51.4,240.2z"/>
		<path class="st2" d="M73.8,257.5l18.7-28.7l7,4.6l-2.1,4.6l0.2,0.1c3.6-2.1,7-2.1,10.4,0.1l2,1.3l-5.1,7.7l-2.7-1.8
			c-2-1.3-4-1.7-6-1.2c-2.1,0.5-3.9,1.9-5.3,4.2l-9.2,14.1L73.8,257.5z"/>
		<path class="st2" d="M108.8,278.8c-3.4-1.7-5.7-4-6.8-7c-1.1-3-0.9-6.3,0.8-9.6l9.9-20.2l9.1,4.4l-8.5,17.4
			c-1.8,3.8-1,6.5,2.4,8.2c1.6,0.8,3.3,0.9,4.9,0.3c1.6-0.6,2.8-1.8,3.7-3.6l8.4-17.1l9,4.4l-15.1,30.7l-8.1-4l0.7-3.3l-0.2-0.1
			C115.8,280.8,112.4,280.6,108.8,278.8z"/>
		<path class="st2" d="M134.6,290.1l10.9-32.5l8.6,2.9l-0.3,3.3l0.2,0.1c2.9-1.7,6.3-2,10.1-0.7c3.6,1.2,6.1,3.2,7.7,6.1
			c1.5,2.9,1.6,6.1,0.5,9.6l-7.2,21.4l-9.5-3.2l6.2-18.4c1.3-4,0.2-6.6-3.5-7.8c-1.8-0.6-3.3-0.5-4.8,0.3c-1.5,0.8-2.6,2.2-3.2,4.1
			l-6,18L134.6,290.1z"/>
		<path class="st2" d="M185.2,305.5c-4.2-0.9-7.1-3.1-8.9-6.9c-1.8-3.7-2.2-8.1-1.1-13.3c1-5.1,3.1-9,6.3-11.7
			c3.1-2.7,6.7-3.6,10.9-2.8c3.8,0.8,6.5,2.7,8.1,5.6l0.3,0.1l3.5-17.1l9.9,2l-9.8,47.5l-8.9-1.8l-0.4-3.4l-0.3-0.1
			C192.3,305.6,189.1,306.3,185.2,305.5z M190,297.4c2.2,0.5,4,0,5.5-1.4c1.4-1.4,2.4-3.3,2.9-6c1.2-5.8-0.4-9.1-4.8-10
			c-4.4-0.9-7.2,1.5-8.4,7.3c-0.5,2.7-0.4,4.9,0.3,6.6C186.3,295.8,187.8,297,190,297.4z"/>
		<path class="st2" d="M212.1,309.6l4.2-34l10,1.2l-4.2,34L212.1,309.6z M216.4,271.6l1.2-10.2l10.7,1.3l-1.2,10.2L216.4,271.6z"/>
		<path class="st2" d="M250.6,313.1l-0.8-45.8l21.9-0.4c4.1-0.1,7.5,0.9,10.1,3c2.5,2.1,3.8,5,3.9,8.7c0.1,4-1.4,7.2-4.3,9.4l0,0.3
			c4.1,1.9,6.3,5.5,6.4,11c0.1,4.1-1.2,7.4-3.7,9.7c-2.6,2.4-6.1,3.7-10.7,3.7L250.6,313.1z M260.3,284.8l10.2-0.2
			c3.2-0.1,4.8-1.5,4.8-4.4c0-2.9-1.7-4.3-4.9-4.2l-10.2,0.2L260.3,284.8z M260.7,303.9l10.9-0.2c3.9-0.1,5.8-1.8,5.7-5.2
			c0-1.4-0.5-2.6-1.4-3.5c-1-1-2.4-1.5-4.5-1.4l-10.9,0.2L260.7,303.9z"/>
		<path class="st2" d="M308.2,310.6c-3.8,0.5-7-0.2-9.5-2.1c-2.6-1.9-4.2-4.7-4.7-8.4l-3-22.3l10-1.4l2.6,19.2
			c0.6,4.2,2.7,6,6.5,5.5c1.8-0.2,3.2-1.1,4.2-2.4c1-1.4,1.3-3,1.1-5l-2.6-18.8l10-1.4l4.6,33.9l-9,1.2l-1.2-3.1l-0.3,0
			C315.1,308.3,312.2,310,308.2,310.6z"/>
		<path class="st2" d="M348.6,303c-5,1.2-8.9,1.1-11.8-0.5c-3-1.5-4.9-4.1-5.9-7.6l9.8-2.4c0.2,1,0.9,1.7,1.9,2.3
			c1,0.5,2.3,0.6,3.9,0.2c1.6-0.4,2.7-0.9,3.4-1.6c0.7-0.6,0.9-1.3,0.7-2c-0.3-1.3-1.7-1.9-4-1.8l-5.1,0.3
			c-7.1,0.4-11.4-2.2-12.8-7.9c-0.7-2.9-0.1-5.5,1.9-7.9c2-2.5,5.1-4.3,9.3-5.3c4.2-1,7.8-0.8,10.9,0.7c3,1.5,4.9,3.8,5.7,7
			l-9.7,2.4c-0.2-0.9-0.7-1.6-1.6-2.2c-0.9-0.5-2.1-0.6-3.6-0.2c-1.2,0.3-2,0.7-2.6,1.3c-0.6,0.6-0.8,1.3-0.7,1.9
			c0.3,1.2,1.3,1.8,3.1,1.7l6.7-0.4c3.1-0.2,5.7,0.3,7.9,1.3c2.2,1.2,3.7,3.3,4.5,6.5c0.8,3.4,0.2,6.3-2.1,8.8
			C356.2,300.1,352.9,301.9,348.6,303z"/>
		<path class="st2" d="M370.3,296.6l-17.1-45.3l9.5-3.6l6.2,16.4l0.2-0.1c1.1-3.2,3.6-5.5,7.4-6.9c3.6-1.4,6.9-1.4,9.8-0.1
			c2.9,1.3,5.1,3.7,6.4,7.2l8,21.1l-9.4,3.6l-6.8-18.1c-1.5-3.9-4-5.2-7.6-3.9c-1.7,0.6-2.9,1.8-3.7,3.4c-0.7,1.6-0.8,3.3-0.1,5.2
			l6.7,17.8L370.3,296.6z"/>
		<path class="st2" d="M418,277c-3.3,1.8-6.3,2.3-9.1,1.5c-2.8-0.7-5-2.5-6.5-5.3c-1.5-2.9-1.7-5.7-0.6-8.5c1.1-2.7,3.7-5.2,7.7-7.3
			l6.5-3.5l-0.9-1.6c-0.6-1.1-1.5-1.8-2.6-2.1c-1.1-0.2-2.5,0.1-4,0.9c-1.4,0.7-2.3,1.6-2.7,2.6c-0.5,1.1-0.4,2.1,0.1,3.1l-8.3,4.5
			c-1.6-3-1.9-6.1-0.7-9.3c1.1-3.2,3.8-5.9,8-8.1c4.1-2.2,7.8-2.9,11.2-2.2c3.5,0.8,6.1,2.7,7.8,5.9l10.7,19.8l-8,4.3l-2.1-2.4
			l-0.2,0.1C423.6,272.6,421.5,275.1,418,277z M416.5,268.9c1.7-0.9,2.9-2.1,3.5-3.6c0.6-1.4,0.5-2.8-0.2-4.1l-0.7-1.3l-5.7,3.1
			c-1.3,0.7-2.2,1.5-2.6,2.4c-0.4,0.9-0.4,1.8,0.1,2.6c0.5,0.9,1.2,1.4,2.2,1.6C414.1,269.8,415.3,269.6,416.5,268.9z"/>
		<path class="st2" d="M453.5,255c-4.1,3-7.8,4.4-11.1,4c-3.3-0.3-6.1-1.9-8.3-4.8l8.1-6c0.6,0.8,1.5,1.3,2.6,1.4
			c1.1,0.1,2.4-0.4,3.7-1.3c1.3-1,2.2-1.9,2.5-2.7c0.4-0.8,0.3-1.5-0.1-2.1c-0.8-1.1-2.3-1.1-4.4-0.1l-4.6,2.2
			c-6.4,3.1-11.3,2.3-14.8-2.5c-1.8-2.4-2.2-5.1-1.3-8.1c0.9-3.1,3.1-5.9,6.6-8.5c3.5-2.5,6.9-3.7,10.3-3.5c3.4,0.2,6,1.7,8,4.3
			l-8,5.9c-0.5-0.8-1.3-1.2-2.3-1.4c-1-0.2-2.1,0.3-3.4,1.2c-1,0.7-1.6,1.5-1.9,2.2c-0.3,0.8-0.3,1.5,0.1,2c0.7,1,1.9,1.1,3.5,0.4
			l6-2.9c2.8-1.3,5.4-1.9,7.8-1.8c2.4,0.2,4.6,1.7,6.6,4.3c2.1,2.8,2.6,5.8,1.4,8.9C459.4,249.4,457.1,252.3,453.5,255z"/>
		<path class="st2" d="M471.9,240L437,206.3l7-7.3l12.6,12.1l0.2-0.2c-0.3-3.4,0.9-6.5,3.7-9.4c2.7-2.8,5.6-4.2,8.8-4.3
			c3.2-0.1,6.2,1.1,8.8,3.7l16.2,15.6l-7,7.2l-13.9-13.4c-3-2.9-5.9-3-8.5-0.2c-1.3,1.3-1.9,2.9-1.9,4.6c0,1.8,0.8,3.3,2.2,4.7
			l13.7,13.2L471.9,240z"/>
		<path class="st2" d="M506.9,199.6c-2,3.2-4.4,5.1-7.2,5.9c-2.8,0.8-5.6,0.3-8.2-1.3c-2.8-1.7-4.3-4.1-4.7-7
			c-0.4-2.9,0.6-6.3,3-10.2l3.9-6.2l-1.6-1c-1.1-0.7-2.2-0.9-3.3-0.6c-1.1,0.3-2.1,1.3-3.1,2.8c-0.8,1.3-1.2,2.5-1,3.6
			c0.1,1.2,0.7,2,1.6,2.6l-5,8c-2.9-1.8-4.7-4.4-5.3-7.8c-0.6-3.3,0.4-7,2.9-11.1c2.4-3.9,5.3-6.4,8.7-7.5c3.4-1.1,6.6-0.7,9.7,1.2
			l19.1,11.9l-4.8,7.7l-3-1l-0.1,0.2C509.5,193,509,196.3,506.9,199.6z M501.6,193.3c1-1.7,1.5-3.3,1.2-4.8c-0.2-1.5-1-2.7-2.2-3.5
			l-1.2-0.8l-3.4,5.5c-0.8,1.3-1.1,2.4-1.1,3.4c0.1,1,0.5,1.7,1.4,2.3c0.9,0.6,1.8,0.6,2.7,0.3C499.9,195.4,500.8,194.6,501.6,193.3
			z"/>
	</g>
</g>
</svg>
